<svg xmlns="http://www.w3.org/2000/svg" xmlns:xlink="http://www.w3.org/1999/xlink" viewBox="-8.800000 -8.800000 17.600000 17.600000" width="1080" height="1080">
<rect x="-50%" y="-50%" width="100%" height="100%" fill="black"/>
<g fill="none" stroke-width="0.02" transform="rotate(-90)">
<path d="M 8.000000 0.000000 L 8.000000 0.000000" stroke="hsl(0.00000, 100%, 50%)"/>
<path d="M 7.999695 0.069812 L 6.217168 5.034563" stroke="hsl(0.500000, 100%, 50%)"/>
<path d="M 7.998782 0.139619 L 1.663294 7.825181" stroke="hsl(1.00000, 100%, 50%)"/>
<path d="M 7.997259 0.209416 L -3.631924 7.128052" stroke="hsl(1.50000, 100%, 50%)"/>
<path d="M 7.995127 0.279196 L -7.308364 3.253893" stroke="hsl(2.00000, 100%, 50%)"/>
<path d="M 7.992386 0.348955 L -7.727407 -2.070552" stroke="hsl(2.50000, 100%, 50%)"/>
<path d="M 7.989036 0.418688 L -4.702282 -6.472136" stroke="hsl(3.00000, 100%, 50%)"/>
<path d="M 7.985078 0.488388 L 0.418688 -7.989036" stroke="hsl(3.50000, 100%, 50%)"/>
<path d="M 7.980512 0.558052 L 5.353045 -5.945159" stroke="hsl(4.00000, 100%, 50%)"/>
<path d="M 7.975339 0.627673 L 7.901507 -1.251476" stroke="hsl(4.50000, 100%, 50%)"/>
<path d="M 7.969558 0.697246 L 6.928203 4.000000" stroke="hsl(5.00000, 100%, 50%)"/>
<path d="M 7.963170 0.766766 L 2.866944 7.468643" stroke="hsl(5.50000, 100%, 50%)"/>
<path d="M 7.956175 0.836228 L -2.472136 7.608452" stroke="hsl(6.00000, 100%, 50%)"/>
<path d="M 7.948575 0.905626 L -6.709365 4.357112" stroke="hsl(6.50000, 100%, 50%)"/>
<path d="M 7.940369 0.974955 L -7.956175 -0.836228" stroke="hsl(7.00000, 100%, 50%)"/>
<path d="M 7.931559 1.044210 L -5.656854 -5.656854" stroke="hsl(7.50000, 100%, 50%)"/>
<path d="M 7.922145 1.113385 L -0.836228 -7.956175" stroke="hsl(8.00000, 100%, 50%)"/>
<path d="M 7.912127 1.182475 L 4.357112 -6.709365" stroke="hsl(8.50000, 100%, 50%)"/>
<path d="M 7.901507 1.251476 L 7.608452 -2.472136" stroke="hsl(9.00000, 100%, 50%)"/>
<path d="M 7.890285 1.320381 L 7.468643 2.866944" stroke="hsl(9.50000, 100%, 50%)"/>
<path d="M 7.878462 1.389185 L 4.000000 6.928203" stroke="hsl(10.0000, 100%, 50%)"/>
<path d="M 7.866039 1.457884 L -1.251476 7.901507" stroke="hsl(10.5000, 100%, 50%)"/>
<path d="M 7.853017 1.526472 L -5.945159 5.353045" stroke="hsl(11.0000, 100%, 50%)"/>
<path d="M 7.839398 1.594943 L -7.989036 0.418688" stroke="hsl(11.5000, 100%, 50%)"/>
<path d="M 7.825181 1.663294 L -6.472136 -4.702282" stroke="hsl(12.0000, 100%, 50%)"/>
<path d="M 7.810368 1.731517 L -2.070552 -7.727407" stroke="hsl(12.5000, 100%, 50%)"/>
<path d="M 7.794961 1.799608 L 3.253893 -7.308364" stroke="hsl(13.0000, 100%, 50%)"/>
<path d="M 7.778959 1.867563 L 7.128052 -3.631924" stroke="hsl(13.5000, 100%, 50%)"/>
<path d="M 7.762366 1.935375 L 7.825181 1.663294" stroke="hsl(14.0000, 100%, 50%)"/>
<path d="M 7.745181 2.003040 L 5.034563 6.217168" stroke="hsl(14.5000, 100%, 50%)"/>
<path d="M 7.727407 2.070552 L 0.000000 8.000000" stroke="hsl(15.0000, 100%, 50%)"/>
<path d="M 7.709044 2.137907 L -5.034563 6.217168" stroke="hsl(15.5000, 100%, 50%)"/>
<path d="M 7.690094 2.205099 L -7.825181 1.663294" stroke="hsl(16.0000, 100%, 50%)"/>
<path d="M 7.670558 2.272123 L -7.128052 -3.631924" stroke="hsl(16.5000, 100%, 50%)"/>
<path d="M 7.650438 2.338974 L -3.253893 -7.308364" stroke="hsl(17.0000, 100%, 50%)"/>
<path d="M 7.629736 2.405646 L 2.070552 -7.727407" stroke="hsl(17.5000, 100%, 50%)"/>
<path d="M 7.608452 2.472136 L 6.472136 -4.702282" stroke="hsl(18.0000, 100%, 50%)"/>
<path d="M 7.586589 2.538437 L 7.989036 0.418688" stroke="hsl(18.5000, 100%, 50%)"/>
<path d="M 7.564149 2.604545 L 5.945159 5.353045" stroke="hsl(19.0000, 100%, 50%)"/>
<path d="M 7.541132 2.670455 L 1.251476 7.901507" stroke="hsl(19.5000, 100%, 50%)"/>
<path d="M 7.517541 2.736161 L -4.000000 6.928203" stroke="hsl(20.0000, 100%, 50%)"/>
<path d="M 7.493378 2.801659 L -7.468643 2.866944" stroke="hsl(20.5000, 100%, 50%)"/>
<path d="M 7.468643 2.866944 L -7.608452 -2.472136" stroke="hsl(21.0000, 100%, 50%)"/>
<path d="M 7.443341 2.932010 L -4.357112 -6.709365" stroke="hsl(21.5000, 100%, 50%)"/>
<path d="M 7.417471 2.996853 L 0.836228 -7.956175" stroke="hsl(22.0000, 100%, 50%)"/>
<path d="M 7.391036 3.061467 L 5.656854 -5.656854" stroke="hsl(22.5000, 100%, 50%)"/>
<path d="M 7.364039 3.125849 L 7.956175 -0.836228" stroke="hsl(23.0000, 100%, 50%)"/>
<path d="M 7.336481 3.189993 L 6.709365 4.357112" stroke="hsl(23.5000, 100%, 50%)"/>
<path d="M 7.308364 3.253893 L 2.472136 7.608452" stroke="hsl(24.0000, 100%, 50%)"/>
<path d="M 7.279690 3.317546 L -2.866944 7.468643" stroke="hsl(24.5000, 100%, 50%)"/>
<path d="M 7.250462 3.380946 L -6.928203 4.000000" stroke="hsl(25.0000, 100%, 50%)"/>
<path d="M 7.220682 3.444089 L -7.901507 -1.251476" stroke="hsl(25.5000, 100%, 50%)"/>
<path d="M 7.190352 3.506969 L -5.353045 -5.945159" stroke="hsl(26.0000, 100%, 50%)"/>
<path d="M 7.159475 3.569583 L -0.418688 -7.989036" stroke="hsl(26.5000, 100%, 50%)"/>
<path d="M 7.128052 3.631924 L 4.702282 -6.472136" stroke="hsl(27.0000, 100%, 50%)"/>
<path d="M 7.096087 3.693989 L 7.727407 -2.070552" stroke="hsl(27.5000, 100%, 50%)"/>
<path d="M 7.063581 3.755773 L 7.308364 3.253893" stroke="hsl(28.0000, 100%, 50%)"/>
<path d="M 7.030537 3.817270 L 3.631924 7.128052" stroke="hsl(28.5000, 100%, 50%)"/>
<path d="M 6.996958 3.878477 L -1.663294 7.825181" stroke="hsl(29.0000, 100%, 50%)"/>
<path d="M 6.962846 3.939388 L -6.217168 5.034563" stroke="hsl(29.5000, 100%, 50%)"/>
<path d="M 6.928203 4.000000 L -8.000000 0.000000" stroke="hsl(30.0000, 100%, 50%)"/>
<path d="M 6.893033 4.060307 L -6.217168 -5.034563" stroke="hsl(30.5000, 100%, 50%)"/>
<path d="M 6.857338 4.120305 L -1.663294 -7.825181" stroke="hsl(31.0000, 100%, 50%)"/>
<path d="M 6.821121 4.179989 L 3.631924 -7.128052" stroke="hsl(31.5000, 100%, 50%)"/>
<path d="M 6.784385 4.239354 L 7.308364 -3.253893" stroke="hsl(32.0000, 100%, 50%)"/>
<path d="M 6.747132 4.298397 L 7.727407 2.070552" stroke="hsl(32.5000, 100%, 50%)"/>
<path d="M 6.709365 4.357112 L 4.702282 6.472136" stroke="hsl(33.0000, 100%, 50%)"/>
<path d="M 6.671087 4.415496 L -0.418688 7.989036" stroke="hsl(33.5000, 100%, 50%)"/>
<path d="M 6.632301 4.473543 L -5.353045 5.945159" stroke="hsl(34.0000, 100%, 50%)"/>
<path d="M 6.593010 4.531250 L -7.901507 1.251476" stroke="hsl(34.5000, 100%, 50%)"/>
<path d="M 6.553216 4.588611 L -6.928203 -4.000000" stroke="hsl(35.0000, 100%, 50%)"/>
<path d="M 6.512924 4.645624 L -2.866944 -7.468643" stroke="hsl(35.5000, 100%, 50%)"/>
<path d="M 6.472136 4.702282 L 2.472136 -7.608452" stroke="hsl(36.0000, 100%, 50%)"/>
<path d="M 6.430855 4.758582 L 6.709365 -4.357112" stroke="hsl(36.5000, 100%, 50%)"/>
<path d="M 6.389084 4.814520 L 7.956175 0.836228" stroke="hsl(37.0000, 100%, 50%)"/>
<path d="M 6.346827 4.870091 L 5.656854 5.656854" stroke="hsl(37.5000, 100%, 50%)"/>
<path d="M 6.304086 4.925292 L 0.836228 7.956175" stroke="hsl(38.0000, 100%, 50%)"/>
<path d="M 6.260865 4.980117 L -4.357112 6.709365" stroke="hsl(38.5000, 100%, 50%)"/>
<path d="M 6.217168 5.034563 L -7.608452 2.472136" stroke="hsl(39.0000, 100%, 50%)"/>
<path d="M 6.172997 5.088626 L -7.468643 -2.866944" stroke="hsl(39.5000, 100%, 50%)"/>
<path d="M 6.128356 5.142301 L -4.000000 -6.928203" stroke="hsl(40.0000, 100%, 50%)"/>
<path d="M 6.083248 5.195584 L 1.251476 -7.901507" stroke="hsl(40.5000, 100%, 50%)"/>
<path d="M 6.037677 5.248472 L 5.945159 -5.353045" stroke="hsl(41.0000, 100%, 50%)"/>
<path d="M 5.991646 5.300960 L 7.989036 -0.418688" stroke="hsl(41.5000, 100%, 50%)"/>
<path d="M 5.945159 5.353045 L 6.472136 4.702282" stroke="hsl(42.0000, 100%, 50%)"/>
<path d="M 5.898219 5.404722 L 2.070552 7.727407" stroke="hsl(42.5000, 100%, 50%)"/>
<path d="M 5.850830 5.455987 L -3.253893 7.308364" stroke="hsl(43.0000, 100%, 50%)"/>
<path d="M 5.802995 5.506837 L -7.128052 3.631924" stroke="hsl(43.5000, 100%, 50%)"/>
<path d="M 5.754718 5.557267 L -7.825181 -1.663294" stroke="hsl(44.0000, 100%, 50%)"/>
<path d="M 5.706004 5.607274 L -5.034563 -6.217168" stroke="hsl(44.5000, 100%, 50%)"/>
<path d="M 5.656854 5.656854 L -0.000000 -8.000000" stroke="hsl(45.0000, 100%, 50%)"/>
<path d="M 5.607274 5.706004 L 5.034563 -6.217168" stroke="hsl(45.5000, 100%, 50%)"/>
<path d="M 5.557267 5.754718 L 7.825181 -1.663294" stroke="hsl(46.0000, 100%, 50%)"/>
<path d="M 5.506837 5.802995 L 7.128052 3.631924" stroke="hsl(46.5000, 100%, 50%)"/>
<path d="M 5.455987 5.850830 L 3.253893 7.308364" stroke="hsl(47.0000, 100%, 50%)"/>
<path d="M 5.404722 5.898219 L -2.070552 7.727407" stroke="hsl(47.5000, 100%, 50%)"/>
<path d="M 5.353045 5.945159 L -6.472136 4.702282" stroke="hsl(48.0000, 100%, 50%)"/>
<path d="M 5.300960 5.991646 L -7.989036 -0.418688" stroke="hsl(48.5000, 100%, 50%)"/>
<path d="M 5.248472 6.037677 L -5.945159 -5.353045" stroke="hsl(49.0000, 100%, 50%)"/>
<path d="M 5.195584 6.083248 L -1.251476 -7.901507" stroke="hsl(49.5000, 100%, 50%)"/>
<path d="M 5.142301 6.128356 L 4.000000 -6.928203" stroke="hsl(50.0000, 100%, 50%)"/>
<path d="M 5.088626 6.172997 L 7.468643 -2.866944" stroke="hsl(50.5000, 100%, 50%)"/>
<path d="M 5.034563 6.217168 L 7.608452 2.472136" stroke="hsl(51.0000, 100%, 50%)"/>
<path d="M 4.980117 6.260865 L 4.357112 6.709365" stroke="hsl(51.5000, 100%, 50%)"/>
<path d="M 4.925292 6.304086 L -0.836228 7.956175" stroke="hsl(52.0000, 100%, 50%)"/>
<path d="M 4.870091 6.346827 L -5.656854 5.656854" stroke="hsl(52.5000, 100%, 50%)"/>
<path d="M 4.814520 6.389084 L -7.956175 0.836228" stroke="hsl(53.0000, 100%, 50%)"/>
<path d="M 4.758582 6.430855 L -6.709365 -4.357112" stroke="hsl(53.5000, 100%, 50%)"/>
<path d="M 4.702282 6.472136 L -2.472136 -7.608452" stroke="hsl(54.0000, 100%, 50%)"/>
<path d="M 4.645624 6.512924 L 2.866944 -7.468643" stroke="hsl(54.5000, 100%, 50%)"/>
<path d="M 4.588611 6.553216 L 6.928203 -4.000000" stroke="hsl(55.0000, 100%, 50%)"/>
<path d="M 4.531250 6.593010 L 7.901507 1.251476" stroke="hsl(55.5000, 100%, 50%)"/>
<path d="M 4.473543 6.632301 L 5.353045 5.945159" stroke="hsl(56.0000, 100%, 50%)"/>
<path d="M 4.415496 6.671087 L 0.418688 7.989036" stroke="hsl(56.5000, 100%, 50%)"/>
<path d="M 4.357112 6.709365 L -4.702282 6.472136" stroke="hsl(57.0000, 100%, 50%)"/>
<path d="M 4.298397 6.747132 L -7.727407 2.070552" stroke="hsl(57.5000, 100%, 50%)"/>
<path d="M 4.239354 6.784385 L -7.308364 -3.253893" stroke="hsl(58.0000, 100%, 50%)"/>
<path d="M 4.179989 6.821121 L -3.631924 -7.128052" stroke="hsl(58.5000, 100%, 50%)"/>
<path d="M 4.120305 6.857338 L 1.663294 -7.825181" stroke="hsl(59.0000, 100%, 50%)"/>
<path d="M 4.060307 6.893033 L 6.217168 -5.034563" stroke="hsl(59.5000, 100%, 50%)"/>
<path d="M 4.000000 6.928203 L 8.000000 0.000000" stroke="hsl(60.0000, 100%, 50%)"/>
<path d="M 3.939388 6.962846 L 6.217168 5.034563" stroke="hsl(60.5000, 100%, 50%)"/>
<path d="M 3.878477 6.996958 L 1.663294 7.825181" stroke="hsl(61.0000, 100%, 50%)"/>
<path d="M 3.817270 7.030537 L -3.631924 7.128052" stroke="hsl(61.5000, 100%, 50%)"/>
<path d="M 3.755773 7.063581 L -7.308364 3.253893" stroke="hsl(62.0000, 100%, 50%)"/>
<path d="M 3.693989 7.096087 L -7.727407 -2.070552" stroke="hsl(62.5000, 100%, 50%)"/>
<path d="M 3.631924 7.128052 L -4.702282 -6.472136" stroke="hsl(63.0000, 100%, 50%)"/>
<path d="M 3.569583 7.159475 L 0.418688 -7.989036" stroke="hsl(63.5000, 100%, 50%)"/>
<path d="M 3.506969 7.190352 L 5.353045 -5.945159" stroke="hsl(64.0000, 100%, 50%)"/>
<path d="M 3.444089 7.220682 L 7.901507 -1.251476" stroke="hsl(64.5000, 100%, 50%)"/>
<path d="M 3.380946 7.250462 L 6.928203 4.000000" stroke="hsl(65.0000, 100%, 50%)"/>
<path d="M 3.317546 7.279690 L 2.866944 7.468643" stroke="hsl(65.5000, 100%, 50%)"/>
<path d="M 3.253893 7.308364 L -2.472136 7.608452" stroke="hsl(66.0000, 100%, 50%)"/>
<path d="M 3.189993 7.336481 L -6.709365 4.357112" stroke="hsl(66.5000, 100%, 50%)"/>
<path d="M 3.125849 7.364039 L -7.956175 -0.836228" stroke="hsl(67.0000, 100%, 50%)"/>
<path d="M 3.061467 7.391036 L -5.656854 -5.656854" stroke="hsl(67.5000, 100%, 50%)"/>
<path d="M 2.996853 7.417471 L -0.836228 -7.956175" stroke="hsl(68.0000, 100%, 50%)"/>
<path d="M 2.932010 7.443341 L 4.357112 -6.709365" stroke="hsl(68.5000, 100%, 50%)"/>
<path d="M 2.866944 7.468643 L 7.608452 -2.472136" stroke="hsl(69.0000, 100%, 50%)"/>
<path d="M 2.801659 7.493378 L 7.468643 2.866944" stroke="hsl(69.5000, 100%, 50%)"/>
<path d="M 2.736161 7.517541 L 4.000000 6.928203" stroke="hsl(70.0000, 100%, 50%)"/>
<path d="M 2.670455 7.541132 L -1.251476 7.901507" stroke="hsl(70.5000, 100%, 50%)"/>
<path d="M 2.604545 7.564149 L -5.945159 5.353045" stroke="hsl(71.0000, 100%, 50%)"/>
<path d="M 2.538437 7.586589 L -7.989036 0.418688" stroke="hsl(71.5000, 100%, 50%)"/>
<path d="M 2.472136 7.608452 L -6.472136 -4.702282" stroke="hsl(72.0000, 100%, 50%)"/>
<path d="M 2.405646 7.629736 L -2.070552 -7.727407" stroke="hsl(72.5000, 100%, 50%)"/>
<path d="M 2.338974 7.650438 L 3.253893 -7.308364" stroke="hsl(73.0000, 100%, 50%)"/>
<path d="M 2.272123 7.670558 L 7.128052 -3.631924" stroke="hsl(73.5000, 100%, 50%)"/>
<path d="M 2.205099 7.690094 L 7.825181 1.663294" stroke="hsl(74.0000, 100%, 50%)"/>
<path d="M 2.137907 7.709044 L 5.034563 6.217168" stroke="hsl(74.5000, 100%, 50%)"/>
<path d="M 2.070552 7.727407 L 0.000000 8.000000" stroke="hsl(75.0000, 100%, 50%)"/>
<path d="M 2.003040 7.745181 L -5.034563 6.217168" stroke="hsl(75.5000, 100%, 50%)"/>
<path d="M 1.935375 7.762366 L -7.825181 1.663294" stroke="hsl(76.0000, 100%, 50%)"/>
<path d="M 1.867563 7.778959 L -7.128052 -3.631924" stroke="hsl(76.5000, 100%, 50%)"/>
<path d="M 1.799608 7.794961 L -3.253893 -7.308364" stroke="hsl(77.0000, 100%, 50%)"/>
<path d="M 1.731517 7.810368 L 2.070552 -7.727407" stroke="hsl(77.5000, 100%, 50%)"/>
<path d="M 1.663294 7.825181 L 6.472136 -4.702282" stroke="hsl(78.0000, 100%, 50%)"/>
<path d="M 1.594943 7.839398 L 7.989036 0.418688" stroke="hsl(78.5000, 100%, 50%)"/>
<path d="M 1.526472 7.853017 L 5.945159 5.353045" stroke="hsl(79.0000, 100%, 50%)"/>
<path d="M 1.457884 7.866039 L 1.251476 7.901507" stroke="hsl(79.5000, 100%, 50%)"/>
<path d="M 1.389185 7.878462 L -4.000000 6.928203" stroke="hsl(80.0000, 100%, 50%)"/>
<path d="M 1.320381 7.890285 L -7.468643 2.866944" stroke="hsl(80.5000, 100%, 50%)"/>
<path d="M 1.251476 7.901507 L -7.608452 -2.472136" stroke="hsl(81.0000, 100%, 50%)"/>
<path d="M 1.182475 7.912127 L -4.357112 -6.709365" stroke="hsl(81.5000, 100%, 50%)"/>
<path d="M 1.113385 7.922145 L 0.836228 -7.956175" stroke="hsl(82.0000, 100%, 50%)"/>
<path d="M 1.044210 7.931559 L 5.656854 -5.656854" stroke="hsl(82.5000, 100%, 50%)"/>
<path d="M 0.974955 7.940369 L 7.956175 -0.836228" stroke="hsl(83.0000, 100%, 50%)"/>
<path d="M 0.905626 7.948575 L 6.709365 4.357112" stroke="hsl(83.5000, 100%, 50%)"/>
<path d="M 0.836228 7.956175 L 2.472136 7.608452" stroke="hsl(84.0000, 100%, 50%)"/>
<path d="M 0.766766 7.963170 L -2.866944 7.468643" stroke="hsl(84.5000, 100%, 50%)"/>
<path d="M 0.697246 7.969558 L -6.928203 4.000000" stroke="hsl(85.0000, 100%, 50%)"/>
<path d="M 0.627673 7.975339 L -7.901507 -1.251476" stroke="hsl(85.5000, 100%, 50%)"/>
<path d="M 0.558052 7.980512 L -5.353045 -5.945159" stroke="hsl(86.0000, 100%, 50%)"/>
<path d="M 0.488388 7.985078 L -0.418688 -7.989036" stroke="hsl(86.5000, 100%, 50%)"/>
<path d="M 0.418688 7.989036 L 4.702282 -6.472136" stroke="hsl(87.0000, 100%, 50%)"/>
<path d="M 0.348955 7.992386 L 7.727407 -2.070552" stroke="hsl(87.5000, 100%, 50%)"/>
<path d="M 0.279196 7.995127 L 7.308364 3.253893" stroke="hsl(88.0000, 100%, 50%)"/>
<path d="M 0.209416 7.997259 L 3.631924 7.128052" stroke="hsl(88.5000, 100%, 50%)"/>
<path d="M 0.139619 7.998782 L -1.663294 7.825181" stroke="hsl(89.0000, 100%, 50%)"/>
<path d="M 0.069812 7.999695 L -6.217168 5.034563" stroke="hsl(89.5000, 100%, 50%)"/>
<path d="M 0.000000 8.000000 L -8.000000 0.000000" stroke="hsl(90.0000, 100%, 50%)"/>
<path d="M -0.069812 7.999695 L -6.217168 -5.034563" stroke="hsl(90.5000, 100%, 50%)"/>
<path d="M -0.139619 7.998782 L -1.663294 -7.825181" stroke="hsl(91.0000, 100%, 50%)"/>
<path d="M -0.209416 7.997259 L 3.631924 -7.128052" stroke="hsl(91.5000, 100%, 50%)"/>
<path d="M -0.279196 7.995127 L 7.308364 -3.253893" stroke="hsl(92.0000, 100%, 50%)"/>
<path d="M -0.348955 7.992386 L 7.727407 2.070552" stroke="hsl(92.5000, 100%, 50%)"/>
<path d="M -0.418688 7.989036 L 4.702282 6.472136" stroke="hsl(93.0000, 100%, 50%)"/>
<path d="M -0.488388 7.985078 L -0.418688 7.989036" stroke="hsl(93.5000, 100%, 50%)"/>
<path d="M -0.558052 7.980512 L -5.353045 5.945159" stroke="hsl(94.0000, 100%, 50%)"/>
<path d="M -0.627673 7.975339 L -7.901507 1.251476" stroke="hsl(94.5000, 100%, 50%)"/>
<path d="M -0.697246 7.969558 L -6.928203 -4.000000" stroke="hsl(95.0000, 100%, 50%)"/>
<path d="M -0.766766 7.963170 L -2.866944 -7.468643" stroke="hsl(95.5000, 100%, 50%)"/>
<path d="M -0.836228 7.956175 L 2.472136 -7.608452" stroke="hsl(96.0000, 100%, 50%)"/>
<path d="M -0.905626 7.948575 L 6.709365 -4.357112" stroke="hsl(96.5000, 100%, 50%)"/>
<path d="M -0.974955 7.940369 L 7.956175 0.836228" stroke="hsl(97.0000, 100%, 50%)"/>
<path d="M -1.044210 7.931559 L 5.656854 5.656854" stroke="hsl(97.5000, 100%, 50%)"/>
<path d="M -1.113385 7.922145 L 0.836228 7.956175" stroke="hsl(98.0000, 100%, 50%)"/>
<path d="M -1.182475 7.912127 L -4.357112 6.709365" stroke="hsl(98.5000, 100%, 50%)"/>
<path d="M -1.251476 7.901507 L -7.608452 2.472136" stroke="hsl(99.0000, 100%, 50%)"/>
<path d="M -1.320381 7.890285 L -7.468643 -2.866944" stroke="hsl(99.5000, 100%, 50%)"/>
<path d="M -1.389185 7.878462 L -4.000000 -6.928203" stroke="hsl(100.000, 100%, 50%)"/>
<path d="M -1.457884 7.866039 L 1.251476 -7.901507" stroke="hsl(100.500, 100%, 50%)"/>
<path d="M -1.526472 7.853017 L 5.945159 -5.353045" stroke="hsl(101.000, 100%, 50%)"/>
<path d="M -1.594943 7.839398 L 7.989036 -0.418688" stroke="hsl(101.500, 100%, 50%)"/>
<path d="M -1.663294 7.825181 L 6.472136 4.702282" stroke="hsl(102.000, 100%, 50%)"/>
<path d="M -1.731517 7.810368 L 2.070552 7.727407" stroke="hsl(102.500, 100%, 50%)"/>
<path d="M -1.799608 7.794961 L -3.253893 7.308364" stroke="hsl(103.000, 100%, 50%)"/>
<path d="M -1.867563 7.778959 L -7.128052 3.631924" stroke="hsl(103.500, 100%, 50%)"/>
<path d="M -1.935375 7.762366 L -7.825181 -1.663294" stroke="hsl(104.000, 100%, 50%)"/>
<path d="M -2.003040 7.745181 L -5.034563 -6.217168" stroke="hsl(104.500, 100%, 50%)"/>
<path d="M -2.070552 7.727407 L -0.000000 -8.000000" stroke="hsl(105.000, 100%, 50%)"/>
<path d="M -2.137907 7.709044 L 5.034563 -6.217168" stroke="hsl(105.500, 100%, 50%)"/>
<path d="M -2.205099 7.690094 L 7.825181 -1.663294" stroke="hsl(106.000, 100%, 50%)"/>
<path d="M -2.272123 7.670558 L 7.128052 3.631924" stroke="hsl(106.500, 100%, 50%)"/>
<path d="M -2.338974 7.650438 L 3.253893 7.308364" stroke="hsl(107.000, 100%, 50%)"/>
<path d="M -2.405646 7.629736 L -2.070552 7.727407" stroke="hsl(107.500, 100%, 50%)"/>
<path d="M -2.472136 7.608452 L -6.472136 4.702282" stroke="hsl(108.000, 100%, 50%)"/>
<path d="M -2.538437 7.586589 L -7.989036 -0.418688" stroke="hsl(108.500, 100%, 50%)"/>
<path d="M -2.604545 7.564149 L -5.945159 -5.353045" stroke="hsl(109.000, 100%, 50%)"/>
<path d="M -2.670455 7.541132 L -1.251476 -7.901507" stroke="hsl(109.500, 100%, 50%)"/>
<path d="M -2.736161 7.517541 L 4.000000 -6.928203" stroke="hsl(110.000, 100%, 50%)"/>
<path d="M -2.801659 7.493378 L 7.468643 -2.866944" stroke="hsl(110.500, 100%, 50%)"/>
<path d="M -2.866944 7.468643 L 7.608452 2.472136" stroke="hsl(111.000, 100%, 50%)"/>
<path d="M -2.932010 7.443341 L 4.357112 6.709365" stroke="hsl(111.500, 100%, 50%)"/>
<path d="M -2.996853 7.417471 L -0.836228 7.956175" stroke="hsl(112.000, 100%, 50%)"/>
<path d="M -3.061467 7.391036 L -5.656854 5.656854" stroke="hsl(112.500, 100%, 50%)"/>
<path d="M -3.125849 7.364039 L -7.956175 0.836228" stroke="hsl(113.000, 100%, 50%)"/>
<path d="M -3.189993 7.336481 L -6.709365 -4.357112" stroke="hsl(113.500, 100%, 50%)"/>
<path d="M -3.253893 7.308364 L -2.472136 -7.608452" stroke="hsl(114.000, 100%, 50%)"/>
<path d="M -3.317546 7.279690 L 2.866944 -7.468643" stroke="hsl(114.500, 100%, 50%)"/>
<path d="M -3.380946 7.250462 L 6.928203 -4.000000" stroke="hsl(115.000, 100%, 50%)"/>
<path d="M -3.444089 7.220682 L 7.901507 1.251476" stroke="hsl(115.500, 100%, 50%)"/>
<path d="M -3.506969 7.190352 L 5.353045 5.945159" stroke="hsl(116.000, 100%, 50%)"/>
<path d="M -3.569583 7.159475 L 0.418688 7.989036" stroke="hsl(116.500, 100%, 50%)"/>
<path d="M -3.631924 7.128052 L -4.702282 6.472136" stroke="hsl(117.000, 100%, 50%)"/>
<path d="M -3.693989 7.096087 L -7.727407 2.070552" stroke="hsl(117.500, 100%, 50%)"/>
<path d="M -3.755773 7.063581 L -7.308364 -3.253893" stroke="hsl(118.000, 100%, 50%)"/>
<path d="M -3.817270 7.030537 L -3.631924 -7.128052" stroke="hsl(118.500, 100%, 50%)"/>
<path d="M -3.878477 6.996958 L 1.663294 -7.825181" stroke="hsl(119.000, 100%, 50%)"/>
<path d="M -3.939388 6.962846 L 6.217168 -5.034563" stroke="hsl(119.500, 100%, 50%)"/>
<path d="M -4.000000 6.928203 L 8.000000 0.000000" stroke="hsl(120.000, 100%, 50%)"/>
<path d="M -4.060307 6.893033 L 6.217168 5.034563" stroke="hsl(120.500, 100%, 50%)"/>
<path d="M -4.120305 6.857338 L 1.663294 7.825181" stroke="hsl(121.000, 100%, 50%)"/>
<path d="M -4.179989 6.821121 L -3.631924 7.128052" stroke="hsl(121.500, 100%, 50%)"/>
<path d="M -4.239354 6.784385 L -7.308364 3.253893" stroke="hsl(122.000, 100%, 50%)"/>
<path d="M -4.298397 6.747132 L -7.727407 -2.070552" stroke="hsl(122.500, 100%, 50%)"/>
<path d="M -4.357112 6.709365 L -4.702282 -6.472136" stroke="hsl(123.000, 100%, 50%)"/>
<path d="M -4.415496 6.671087 L 0.418688 -7.989036" stroke="hsl(123.500, 100%, 50%)"/>
<path d="M -4.473543 6.632301 L 5.353045 -5.945159" stroke="hsl(124.000, 100%, 50%)"/>
<path d="M -4.531250 6.593010 L 7.901507 -1.251476" stroke="hsl(124.500, 100%, 50%)"/>
<path d="M -4.588611 6.553216 L 6.928203 4.000000" stroke="hsl(125.000, 100%, 50%)"/>
<path d="M -4.645624 6.512924 L 2.866944 7.468643" stroke="hsl(125.500, 100%, 50%)"/>
<path d="M -4.702282 6.472136 L -2.472136 7.608452" stroke="hsl(126.000, 100%, 50%)"/>
<path d="M -4.758582 6.430855 L -6.709365 4.357112" stroke="hsl(126.500, 100%, 50%)"/>
<path d="M -4.814520 6.389084 L -7.956175 -0.836228" stroke="hsl(127.000, 100%, 50%)"/>
<path d="M -4.870091 6.346827 L -5.656854 -5.656854" stroke="hsl(127.500, 100%, 50%)"/>
<path d="M -4.925292 6.304086 L -0.836228 -7.956175" stroke="hsl(128.000, 100%, 50%)"/>
<path d="M -4.980117 6.260865 L 4.357112 -6.709365" stroke="hsl(128.500, 100%, 50%)"/>
<path d="M -5.034563 6.217168 L 7.608452 -2.472136" stroke="hsl(129.000, 100%, 50%)"/>
<path d="M -5.088626 6.172997 L 7.468643 2.866944" stroke="hsl(129.500, 100%, 50%)"/>
<path d="M -5.142301 6.128356 L 4.000000 6.928203" stroke="hsl(130.000, 100%, 50%)"/>
<path d="M -5.195584 6.083248 L -1.251476 7.901507" stroke="hsl(130.500, 100%, 50%)"/>
<path d="M -5.248472 6.037677 L -5.945159 5.353045" stroke="hsl(131.000, 100%, 50%)"/>
<path d="M -5.300960 5.991646 L -7.989036 0.418688" stroke="hsl(131.500, 100%, 50%)"/>
<path d="M -5.353045 5.945159 L -6.472136 -4.702282" stroke="hsl(132.000, 100%, 50%)"/>
<path d="M -5.404722 5.898219 L -2.070552 -7.727407" stroke="hsl(132.500, 100%, 50%)"/>
<path d="M -5.455987 5.850830 L 3.253893 -7.308364" stroke="hsl(133.000, 100%, 50%)"/>
<path d="M -5.506837 5.802995 L 7.128052 -3.631924" stroke="hsl(133.500, 100%, 50%)"/>
<path d="M -5.557267 5.754718 L 7.825181 1.663294" stroke="hsl(134.000, 100%, 50%)"/>
<path d="M -5.607274 5.706004 L 5.034563 6.217168" stroke="hsl(134.500, 100%, 50%)"/>
<path d="M -5.656854 5.656854 L 0.000000 8.000000" stroke="hsl(135.000, 100%, 50%)"/>
<path d="M -5.706004 5.607274 L -5.034563 6.217168" stroke="hsl(135.500, 100%, 50%)"/>
<path d="M -5.754718 5.557267 L -7.825181 1.663294" stroke="hsl(136.000, 100%, 50%)"/>
<path d="M -5.802995 5.506837 L -7.128052 -3.631924" stroke="hsl(136.500, 100%, 50%)"/>
<path d="M -5.850830 5.455987 L -3.253893 -7.308364" stroke="hsl(137.000, 100%, 50%)"/>
<path d="M -5.898219 5.404722 L 2.070552 -7.727407" stroke="hsl(137.500, 100%, 50%)"/>
<path d="M -5.945159 5.353045 L 6.472136 -4.702282" stroke="hsl(138.000, 100%, 50%)"/>
<path d="M -5.991646 5.300960 L 7.989036 0.418688" stroke="hsl(138.500, 100%, 50%)"/>
<path d="M -6.037677 5.248472 L 5.945159 5.353045" stroke="hsl(139.000, 100%, 50%)"/>
<path d="M -6.083248 5.195584 L 1.251476 7.901507" stroke="hsl(139.500, 100%, 50%)"/>
<path d="M -6.128356 5.142301 L -4.000000 6.928203" stroke="hsl(140.000, 100%, 50%)"/>
<path d="M -6.172997 5.088626 L -7.468643 2.866944" stroke="hsl(140.500, 100%, 50%)"/>
<path d="M -6.217168 5.034563 L -7.608452 -2.472136" stroke="hsl(141.000, 100%, 50%)"/>
<path d="M -6.260865 4.980117 L -4.357112 -6.709365" stroke="hsl(141.500, 100%, 50%)"/>
<path d="M -6.304086 4.925292 L 0.836228 -7.956175" stroke="hsl(142.000, 100%, 50%)"/>
<path d="M -6.346827 4.870091 L 5.656854 -5.656854" stroke="hsl(142.500, 100%, 50%)"/>
<path d="M -6.389084 4.814520 L 7.956175 -0.836228" stroke="hsl(143.000, 100%, 50%)"/>
<path d="M -6.430855 4.758582 L 6.709365 4.357112" stroke="hsl(143.500, 100%, 50%)"/>
<path d="M -6.472136 4.702282 L 2.472136 7.608452" stroke="hsl(144.000, 100%, 50%)"/>
<path d="M -6.512924 4.645624 L -2.866944 7.468643" stroke="hsl(144.500, 100%, 50%)"/>
<path d="M -6.553216 4.588611 L -6.928203 4.000000" stroke="hsl(145.000, 100%, 50%)"/>
<path d="M -6.593010 4.531250 L -7.901507 -1.251476" stroke="hsl(145.500, 100%, 50%)"/>
<path d="M -6.632301 4.473543 L -5.353045 -5.945159" stroke="hsl(146.000, 100%, 50%)"/>
<path d="M -6.671087 4.415496 L -0.418688 -7.989036" stroke="hsl(146.500, 100%, 50%)"/>
<path d="M -6.709365 4.357112 L 4.702282 -6.472136" stroke="hsl(147.000, 100%, 50%)"/>
<path d="M -6.747132 4.298397 L 7.727407 -2.070552" stroke="hsl(147.500, 100%, 50%)"/>
<path d="M -6.784385 4.239354 L 7.308364 3.253893" stroke="hsl(148.000, 100%, 50%)"/>
<path d="M -6.821121 4.179989 L 3.631924 7.128052" stroke="hsl(148.500, 100%, 50%)"/>
<path d="M -6.857338 4.120305 L -1.663294 7.825181" stroke="hsl(149.000, 100%, 50%)"/>
<path d="M -6.893033 4.060307 L -6.217168 5.034563" stroke="hsl(149.500, 100%, 50%)"/>
<path d="M -6.928203 4.000000 L -8.000000 0.000000" stroke="hsl(150.000, 100%, 50%)"/>
<path d="M -6.962846 3.939388 L -6.217168 -5.034563" stroke="hsl(150.500, 100%, 50%)"/>
<path d="M -6.996958 3.878477 L -1.663294 -7.825181" stroke="hsl(151.000, 100%, 50%)"/>
<path d="M -7.030537 3.817270 L 3.631924 -7.128052" stroke="hsl(151.500, 100%, 50%)"/>
<path d="M -7.063581 3.755773 L 7.308364 -3.253893" stroke="hsl(152.000, 100%, 50%)"/>
<path d="M -7.096087 3.693989 L 7.727407 2.070552" stroke="hsl(152.500, 100%, 50%)"/>
<path d="M -7.128052 3.631924 L 4.702282 6.472136" stroke="hsl(153.000, 100%, 50%)"/>
<path d="M -7.159475 3.569583 L -0.418688 7.989036" stroke="hsl(153.500, 100%, 50%)"/>
<path d="M -7.190352 3.506969 L -5.353045 5.945159" stroke="hsl(154.000, 100%, 50%)"/>
<path d="M -7.220682 3.444089 L -7.901507 1.251476" stroke="hsl(154.500, 100%, 50%)"/>
<path d="M -7.250462 3.380946 L -6.928203 -4.000000" stroke="hsl(155.000, 100%, 50%)"/>
<path d="M -7.279690 3.317546 L -2.866944 -7.468643" stroke="hsl(155.500, 100%, 50%)"/>
<path d="M -7.308364 3.253893 L 2.472136 -7.608452" stroke="hsl(156.000, 100%, 50%)"/>
<path d="M -7.336481 3.189993 L 6.709365 -4.357112" stroke="hsl(156.500, 100%, 50%)"/>
<path d="M -7.364039 3.125849 L 7.956175 0.836228" stroke="hsl(157.000, 100%, 50%)"/>
<path d="M -7.391036 3.061467 L 5.656854 5.656854" stroke="hsl(157.500, 100%, 50%)"/>
<path d="M -7.417471 2.996853 L 0.836228 7.956175" stroke="hsl(158.000, 100%, 50%)"/>
<path d="M -7.443341 2.932010 L -4.357112 6.709365" stroke="hsl(158.500, 100%, 50%)"/>
<path d="M -7.468643 2.866944 L -7.608452 2.472136" stroke="hsl(159.000, 100%, 50%)"/>
<path d="M -7.493378 2.801659 L -7.468643 -2.866944" stroke="hsl(159.500, 100%, 50%)"/>
<path d="M -7.517541 2.736161 L -4.000000 -6.928203" stroke="hsl(160.000, 100%, 50%)"/>
<path d="M -7.541132 2.670455 L 1.251476 -7.901507" stroke="hsl(160.500, 100%, 50%)"/>
<path d="M -7.564149 2.604545 L 5.945159 -5.353045" stroke="hsl(161.000, 100%, 50%)"/>
<path d="M -7.586589 2.538437 L 7.989036 -0.418688" stroke="hsl(161.500, 100%, 50%)"/>
<path d="M -7.608452 2.472136 L 6.472136 4.702282" stroke="hsl(162.000, 100%, 50%)"/>
<path d="M -7.629736 2.405646 L 2.070552 7.727407" stroke="hsl(162.500, 100%, 50%)"/>
<path d="M -7.650438 2.338974 L -3.253893 7.308364" stroke="hsl(163.000, 100%, 50%)"/>
<path d="M -7.670558 2.272123 L -7.128052 3.631924" stroke="hsl(163.500, 100%, 50%)"/>
<path d="M -7.690094 2.205099 L -7.825181 -1.663294" stroke="hsl(164.000, 100%, 50%)"/>
<path d="M -7.709044 2.137907 L -5.034563 -6.217168" stroke="hsl(164.500, 100%, 50%)"/>
<path d="M -7.727407 2.070552 L -0.000000 -8.000000" stroke="hsl(165.000, 100%, 50%)"/>
<path d="M -7.745181 2.003040 L 5.034563 -6.217168" stroke="hsl(165.500, 100%, 50%)"/>
<path d="M -7.762366 1.935375 L 7.825181 -1.663294" stroke="hsl(166.000, 100%, 50%)"/>
<path d="M -7.778959 1.867563 L 7.128052 3.631924" stroke="hsl(166.500, 100%, 50%)"/>
<path d="M -7.794961 1.799608 L 3.253893 7.308364" stroke="hsl(167.000, 100%, 50%)"/>
<path d="M -7.810368 1.731517 L -2.070552 7.727407" stroke="hsl(167.500, 100%, 50%)"/>
<path d="M -7.825181 1.663294 L -6.472136 4.702282" stroke="hsl(168.000, 100%, 50%)"/>
<path d="M -7.839398 1.594943 L -7.989036 -0.418688" stroke="hsl(168.500, 100%, 50%)"/>
<path d="M -7.853017 1.526472 L -5.945159 -5.353045" stroke="hsl(169.000, 100%, 50%)"/>
<path d="M -7.866039 1.457884 L -1.251476 -7.901507" stroke="hsl(169.500, 100%, 50%)"/>
<path d="M -7.878462 1.389185 L 4.000000 -6.928203" stroke="hsl(170.000, 100%, 50%)"/>
<path d="M -7.890285 1.320381 L 7.468643 -2.866944" stroke="hsl(170.500, 100%, 50%)"/>
<path d="M -7.901507 1.251476 L 7.608452 2.472136" stroke="hsl(171.000, 100%, 50%)"/>
<path d="M -7.912127 1.182475 L 4.357112 6.709365" stroke="hsl(171.500, 100%, 50%)"/>
<path d="M -7.922145 1.113385 L -0.836228 7.956175" stroke="hsl(172.000, 100%, 50%)"/>
<path d="M -7.931559 1.044210 L -5.656854 5.656854" stroke="hsl(172.500, 100%, 50%)"/>
<path d="M -7.940369 0.974955 L -7.956175 0.836228" stroke="hsl(173.000, 100%, 50%)"/>
<path d="M -7.948575 0.905626 L -6.709365 -4.357112" stroke="hsl(173.500, 100%, 50%)"/>
<path d="M -7.956175 0.836228 L -2.472136 -7.608452" stroke="hsl(174.000, 100%, 50%)"/>
<path d="M -7.963170 0.766766 L 2.866944 -7.468643" stroke="hsl(174.500, 100%, 50%)"/>
<path d="M -7.969558 0.697246 L 6.928203 -4.000000" stroke="hsl(175.000, 100%, 50%)"/>
<path d="M -7.975339 0.627673 L 7.901507 1.251476" stroke="hsl(175.500, 100%, 50%)"/>
<path d="M -7.980512 0.558052 L 5.353045 5.945159" stroke="hsl(176.000, 100%, 50%)"/>
<path d="M -7.985078 0.488388 L 0.418688 7.989036" stroke="hsl(176.500, 100%, 50%)"/>
<path d="M -7.989036 0.418688 L -4.702282 6.472136" stroke="hsl(177.000, 100%, 50%)"/>
<path d="M -7.992386 0.348955 L -7.727407 2.070552" stroke="hsl(177.500, 100%, 50%)"/>
<path d="M -7.995127 0.279196 L -7.308364 -3.253893" stroke="hsl(178.000, 100%, 50%)"/>
<path d="M -7.997259 0.209416 L -3.631924 -7.128052" stroke="hsl(178.500, 100%, 50%)"/>
<path d="M -7.998782 0.139619 L 1.663294 -7.825181" stroke="hsl(179.000, 100%, 50%)"/>
<path d="M -7.999695 0.069812 L 6.217168 -5.034563" stroke="hsl(179.500, 100%, 50%)"/>
<path d="M -8.000000 0.000000 L 8.000000 0.000000" stroke="hsl(180.000, 100%, 50%)"/>
<path d="M -7.999695 -0.069812 L 6.217168 5.034563" stroke="hsl(180.500, 100%, 50%)"/>
<path d="M -7.998782 -0.139619 L 1.663294 7.825181" stroke="hsl(181.000, 100%, 50%)"/>
<path d="M -7.997259 -0.209416 L -3.631924 7.128052" stroke="hsl(181.500, 100%, 50%)"/>
<path d="M -7.995127 -0.279196 L -7.308364 3.253893" stroke="hsl(182.000, 100%, 50%)"/>
<path d="M -7.992386 -0.348955 L -7.727407 -2.070552" stroke="hsl(182.500, 100%, 50%)"/>
<path d="M -7.989036 -0.418688 L -4.702282 -6.472136" stroke="hsl(183.000, 100%, 50%)"/>
<path d="M -7.985078 -0.488388 L 0.418688 -7.989036" stroke="hsl(183.500, 100%, 50%)"/>
<path d="M -7.980512 -0.558052 L 5.353045 -5.945159" stroke="hsl(184.000, 100%, 50%)"/>
<path d="M -7.975339 -0.627673 L 7.901507 -1.251476" stroke="hsl(184.500, 100%, 50%)"/>
<path d="M -7.969558 -0.697246 L 6.928203 4.000000" stroke="hsl(185.000, 100%, 50%)"/>
<path d="M -7.963170 -0.766766 L 2.866944 7.468643" stroke="hsl(185.500, 100%, 50%)"/>
<path d="M -7.956175 -0.836228 L -2.472136 7.608452" stroke="hsl(186.000, 100%, 50%)"/>
<path d="M -7.948575 -0.905626 L -6.709365 4.357112" stroke="hsl(186.500, 100%, 50%)"/>
<path d="M -7.940369 -0.974955 L -7.956175 -0.836228" stroke="hsl(187.000, 100%, 50%)"/>
<path d="M -7.931559 -1.044210 L -5.656854 -5.656854" stroke="hsl(187.500, 100%, 50%)"/>
<path d="M -7.922145 -1.113385 L -0.836228 -7.956175" stroke="hsl(188.000, 100%, 50%)"/>
<path d="M -7.912127 -1.182475 L 4.357112 -6.709365" stroke="hsl(188.500, 100%, 50%)"/>
<path d="M -7.901507 -1.251476 L 7.608452 -2.472136" stroke="hsl(189.000, 100%, 50%)"/>
<path d="M -7.890285 -1.320381 L 7.468643 2.866944" stroke="hsl(189.500, 100%, 50%)"/>
<path d="M -7.878462 -1.389185 L 4.000000 6.928203" stroke="hsl(190.000, 100%, 50%)"/>
<path d="M -7.866039 -1.457884 L -1.251476 7.901507" stroke="hsl(190.500, 100%, 50%)"/>
<path d="M -7.853017 -1.526472 L -5.945159 5.353045" stroke="hsl(191.000, 100%, 50%)"/>
<path d="M -7.839398 -1.594943 L -7.989036 0.418688" stroke="hsl(191.500, 100%, 50%)"/>
<path d="M -7.825181 -1.663294 L -6.472136 -4.702282" stroke="hsl(192.000, 100%, 50%)"/>
<path d="M -7.810368 -1.731517 L -2.070552 -7.727407" stroke="hsl(192.500, 100%, 50%)"/>
<path d="M -7.794961 -1.799608 L 3.253893 -7.308364" stroke="hsl(193.000, 100%, 50%)"/>
<path d="M -7.778959 -1.867563 L 7.128052 -3.631924" stroke="hsl(193.500, 100%, 50%)"/>
<path d="M -7.762366 -1.935375 L 7.825181 1.663294" stroke="hsl(194.000, 100%, 50%)"/>
<path d="M -7.745181 -2.003040 L 5.034563 6.217168" stroke="hsl(194.500, 100%, 50%)"/>
<path d="M -7.727407 -2.070552 L 0.000000 8.000000" stroke="hsl(195.000, 100%, 50%)"/>
<path d="M -7.709044 -2.137907 L -5.034563 6.217168" stroke="hsl(195.500, 100%, 50%)"/>
<path d="M -7.690094 -2.205099 L -7.825181 1.663294" stroke="hsl(196.000, 100%, 50%)"/>
<path d="M -7.670558 -2.272123 L -7.128052 -3.631924" stroke="hsl(196.500, 100%, 50%)"/>
<path d="M -7.650438 -2.338974 L -3.253893 -7.308364" stroke="hsl(197.000, 100%, 50%)"/>
<path d="M -7.629736 -2.405646 L 2.070552 -7.727407" stroke="hsl(197.500, 100%, 50%)"/>
<path d="M -7.608452 -2.472136 L 6.472136 -4.702282" stroke="hsl(198.000, 100%, 50%)"/>
<path d="M -7.586589 -2.538437 L 7.989036 0.418688" stroke="hsl(198.500, 100%, 50%)"/>
<path d="M -7.564149 -2.604545 L 5.945159 5.353045" stroke="hsl(199.000, 100%, 50%)"/>
<path d="M -7.541132 -2.670455 L 1.251476 7.901507" stroke="hsl(199.500, 100%, 50%)"/>
<path d="M -7.517541 -2.736161 L -4.000000 6.928203" stroke="hsl(200.000, 100%, 50%)"/>
<path d="M -7.493378 -2.801659 L -7.468643 2.866944" stroke="hsl(200.500, 100%, 50%)"/>
<path d="M -7.468643 -2.866944 L -7.608452 -2.472136" stroke="hsl(201.000, 100%, 50%)"/>
<path d="M -7.443341 -2.932010 L -4.357112 -6.709365" stroke="hsl(201.500, 100%, 50%)"/>
<path d="M -7.417471 -2.996853 L 0.836228 -7.956175" stroke="hsl(202.000, 100%, 50%)"/>
<path d="M -7.391036 -3.061467 L 5.656854 -5.656854" stroke="hsl(202.500, 100%, 50%)"/>
<path d="M -7.364039 -3.125849 L 7.956175 -0.836228" stroke="hsl(203.000, 100%, 50%)"/>
<path d="M -7.336481 -3.189993 L 6.709365 4.357112" stroke="hsl(203.500, 100%, 50%)"/>
<path d="M -7.308364 -3.253893 L 2.472136 7.608452" stroke="hsl(204.000, 100%, 50%)"/>
<path d="M -7.279690 -3.317546 L -2.866944 7.468643" stroke="hsl(204.500, 100%, 50%)"/>
<path d="M -7.250462 -3.380946 L -6.928203 4.000000" stroke="hsl(205.000, 100%, 50%)"/>
<path d="M -7.220682 -3.444089 L -7.901507 -1.251476" stroke="hsl(205.500, 100%, 50%)"/>
<path d="M -7.190352 -3.506969 L -5.353045 -5.945159" stroke="hsl(206.000, 100%, 50%)"/>
<path d="M -7.159475 -3.569583 L -0.418688 -7.989036" stroke="hsl(206.500, 100%, 50%)"/>
<path d="M -7.128052 -3.631924 L 4.702282 -6.472136" stroke="hsl(207.000, 100%, 50%)"/>
<path d="M -7.096087 -3.693989 L 7.727407 -2.070552" stroke="hsl(207.500, 100%, 50%)"/>
<path d="M -7.063581 -3.755773 L 7.308364 3.253893" stroke="hsl(208.000, 100%, 50%)"/>
<path d="M -7.030537 -3.817270 L 3.631924 7.128052" stroke="hsl(208.500, 100%, 50%)"/>
<path d="M -6.996958 -3.878477 L -1.663294 7.825181" stroke="hsl(209.000, 100%, 50%)"/>
<path d="M -6.962846 -3.939388 L -6.217168 5.034563" stroke="hsl(209.500, 100%, 50%)"/>
<path d="M -6.928203 -4.000000 L -8.000000 0.000000" stroke="hsl(210.000, 100%, 50%)"/>
<path d="M -6.893033 -4.060307 L -6.217168 -5.034563" stroke="hsl(210.500, 100%, 50%)"/>
<path d="M -6.857338 -4.120305 L -1.663294 -7.825181" stroke="hsl(211.000, 100%, 50%)"/>
<path d="M -6.821121 -4.179989 L 3.631924 -7.128052" stroke="hsl(211.500, 100%, 50%)"/>
<path d="M -6.784385 -4.239354 L 7.308364 -3.253893" stroke="hsl(212.000, 100%, 50%)"/>
<path d="M -6.747132 -4.298397 L 7.727407 2.070552" stroke="hsl(212.500, 100%, 50%)"/>
<path d="M -6.709365 -4.357112 L 4.702282 6.472136" stroke="hsl(213.000, 100%, 50%)"/>
<path d="M -6.671087 -4.415496 L -0.418688 7.989036" stroke="hsl(213.500, 100%, 50%)"/>
<path d="M -6.632301 -4.473543 L -5.353045 5.945159" stroke="hsl(214.000, 100%, 50%)"/>
<path d="M -6.593010 -4.531250 L -7.901507 1.251476" stroke="hsl(214.500, 100%, 50%)"/>
<path d="M -6.553216 -4.588611 L -6.928203 -4.000000" stroke="hsl(215.000, 100%, 50%)"/>
<path d="M -6.512924 -4.645624 L -2.866944 -7.468643" stroke="hsl(215.500, 100%, 50%)"/>
<path d="M -6.472136 -4.702282 L 2.472136 -7.608452" stroke="hsl(216.000, 100%, 50%)"/>
<path d="M -6.430855 -4.758582 L 6.709365 -4.357112" stroke="hsl(216.500, 100%, 50%)"/>
<path d="M -6.389084 -4.814520 L 7.956175 0.836228" stroke="hsl(217.000, 100%, 50%)"/>
<path d="M -6.346827 -4.870091 L 5.656854 5.656854" stroke="hsl(217.500, 100%, 50%)"/>
<path d="M -6.304086 -4.925292 L 0.836228 7.956175" stroke="hsl(218.000, 100%, 50%)"/>
<path d="M -6.260865 -4.980117 L -4.357112 6.709365" stroke="hsl(218.500, 100%, 50%)"/>
<path d="M -6.217168 -5.034563 L -7.608452 2.472136" stroke="hsl(219.000, 100%, 50%)"/>
<path d="M -6.172997 -5.088626 L -7.468643 -2.866944" stroke="hsl(219.500, 100%, 50%)"/>
<path d="M -6.128356 -5.142301 L -4.000000 -6.928203" stroke="hsl(220.000, 100%, 50%)"/>
<path d="M -6.083248 -5.195584 L 1.251476 -7.901507" stroke="hsl(220.500, 100%, 50%)"/>
<path d="M -6.037677 -5.248472 L 5.945159 -5.353045" stroke="hsl(221.000, 100%, 50%)"/>
<path d="M -5.991646 -5.300960 L 7.989036 -0.418688" stroke="hsl(221.500, 100%, 50%)"/>
<path d="M -5.945159 -5.353045 L 6.472136 4.702282" stroke="hsl(222.000, 100%, 50%)"/>
<path d="M -5.898219 -5.404722 L 2.070552 7.727407" stroke="hsl(222.500, 100%, 50%)"/>
<path d="M -5.850830 -5.455987 L -3.253893 7.308364" stroke="hsl(223.000, 100%, 50%)"/>
<path d="M -5.802995 -5.506837 L -7.128052 3.631924" stroke="hsl(223.500, 100%, 50%)"/>
<path d="M -5.754718 -5.557267 L -7.825181 -1.663294" stroke="hsl(224.000, 100%, 50%)"/>
<path d="M -5.706004 -5.607274 L -5.034563 -6.217168" stroke="hsl(224.500, 100%, 50%)"/>
<path d="M -5.656854 -5.656854 L -0.000000 -8.000000" stroke="hsl(225.000, 100%, 50%)"/>
<path d="M -5.607274 -5.706004 L 5.034563 -6.217168" stroke="hsl(225.500, 100%, 50%)"/>
<path d="M -5.557267 -5.754718 L 7.825181 -1.663294" stroke="hsl(226.000, 100%, 50%)"/>
<path d="M -5.506837 -5.802995 L 7.128052 3.631924" stroke="hsl(226.500, 100%, 50%)"/>
<path d="M -5.455987 -5.850830 L 3.253893 7.308364" stroke="hsl(227.000, 100%, 50%)"/>
<path d="M -5.404722 -5.898219 L -2.070552 7.727407" stroke="hsl(227.500, 100%, 50%)"/>
<path d="M -5.353045 -5.945159 L -6.472136 4.702282" stroke="hsl(228.000, 100%, 50%)"/>
<path d="M -5.300960 -5.991646 L -7.989036 -0.418688" stroke="hsl(228.500, 100%, 50%)"/>
<path d="M -5.248472 -6.037677 L -5.945159 -5.353045" stroke="hsl(229.000, 100%, 50%)"/>
<path d="M -5.195584 -6.083248 L -1.251476 -7.901507" stroke="hsl(229.500, 100%, 50%)"/>
<path d="M -5.142301 -6.128356 L 4.000000 -6.928203" stroke="hsl(230.000, 100%, 50%)"/>
<path d="M -5.088626 -6.172997 L 7.468643 -2.866944" stroke="hsl(230.500, 100%, 50%)"/>
<path d="M -5.034563 -6.217168 L 7.608452 2.472136" stroke="hsl(231.000, 100%, 50%)"/>
<path d="M -4.980117 -6.260865 L 4.357112 6.709365" stroke="hsl(231.500, 100%, 50%)"/>
<path d="M -4.925292 -6.304086 L -0.836228 7.956175" stroke="hsl(232.000, 100%, 50%)"/>
<path d="M -4.870091 -6.346827 L -5.656854 5.656854" stroke="hsl(232.500, 100%, 50%)"/>
<path d="M -4.814520 -6.389084 L -7.956175 0.836228" stroke="hsl(233.000, 100%, 50%)"/>
<path d="M -4.758582 -6.430855 L -6.709365 -4.357112" stroke="hsl(233.500, 100%, 50%)"/>
<path d="M -4.702282 -6.472136 L -2.472136 -7.608452" stroke="hsl(234.000, 100%, 50%)"/>
<path d="M -4.645624 -6.512924 L 2.866944 -7.468643" stroke="hsl(234.500, 100%, 50%)"/>
<path d="M -4.588611 -6.553216 L 6.928203 -4.000000" stroke="hsl(235.000, 100%, 50%)"/>
<path d="M -4.531250 -6.593010 L 7.901507 1.251476" stroke="hsl(235.500, 100%, 50%)"/>
<path d="M -4.473543 -6.632301 L 5.353045 5.945159" stroke="hsl(236.000, 100%, 50%)"/>
<path d="M -4.415496 -6.671087 L 0.418688 7.989036" stroke="hsl(236.500, 100%, 50%)"/>
<path d="M -4.357112 -6.709365 L -4.702282 6.472136" stroke="hsl(237.000, 100%, 50%)"/>
<path d="M -4.298397 -6.747132 L -7.727407 2.070552" stroke="hsl(237.500, 100%, 50%)"/>
<path d="M -4.239354 -6.784385 L -7.308364 -3.253893" stroke="hsl(238.000, 100%, 50%)"/>
<path d="M -4.179989 -6.821121 L -3.631924 -7.128052" stroke="hsl(238.500, 100%, 50%)"/>
<path d="M -4.120305 -6.857338 L 1.663294 -7.825181" stroke="hsl(239.000, 100%, 50%)"/>
<path d="M -4.060307 -6.893033 L 6.217168 -5.034563" stroke="hsl(239.500, 100%, 50%)"/>
<path d="M -4.000000 -6.928203 L 8.000000 0.000000" stroke="hsl(240.000, 100%, 50%)"/>
<path d="M -3.939388 -6.962846 L 6.217168 5.034563" stroke="hsl(240.500, 100%, 50%)"/>
<path d="M -3.878477 -6.996958 L 1.663294 7.825181" stroke="hsl(241.000, 100%, 50%)"/>
<path d="M -3.817270 -7.030537 L -3.631924 7.128052" stroke="hsl(241.500, 100%, 50%)"/>
<path d="M -3.755773 -7.063581 L -7.308364 3.253893" stroke="hsl(242.000, 100%, 50%)"/>
<path d="M -3.693989 -7.096087 L -7.727407 -2.070552" stroke="hsl(242.500, 100%, 50%)"/>
<path d="M -3.631924 -7.128052 L -4.702282 -6.472136" stroke="hsl(243.000, 100%, 50%)"/>
<path d="M -3.569583 -7.159475 L 0.418688 -7.989036" stroke="hsl(243.500, 100%, 50%)"/>
<path d="M -3.506969 -7.190352 L 5.353045 -5.945159" stroke="hsl(244.000, 100%, 50%)"/>
<path d="M -3.444089 -7.220682 L 7.901507 -1.251476" stroke="hsl(244.500, 100%, 50%)"/>
<path d="M -3.380946 -7.250462 L 6.928203 4.000000" stroke="hsl(245.000, 100%, 50%)"/>
<path d="M -3.317546 -7.279690 L 2.866944 7.468643" stroke="hsl(245.500, 100%, 50%)"/>
<path d="M -3.253893 -7.308364 L -2.472136 7.608452" stroke="hsl(246.000, 100%, 50%)"/>
<path d="M -3.189993 -7.336481 L -6.709365 4.357112" stroke="hsl(246.500, 100%, 50%)"/>
<path d="M -3.125849 -7.364039 L -7.956175 -0.836228" stroke="hsl(247.000, 100%, 50%)"/>
<path d="M -3.061467 -7.391036 L -5.656854 -5.656854" stroke="hsl(247.500, 100%, 50%)"/>
<path d="M -2.996853 -7.417471 L -0.836228 -7.956175" stroke="hsl(248.000, 100%, 50%)"/>
<path d="M -2.932010 -7.443341 L 4.357112 -6.709365" stroke="hsl(248.500, 100%, 50%)"/>
<path d="M -2.866944 -7.468643 L 7.608452 -2.472136" stroke="hsl(249.000, 100%, 50%)"/>
<path d="M -2.801659 -7.493378 L 7.468643 2.866944" stroke="hsl(249.500, 100%, 50%)"/>
<path d="M -2.736161 -7.517541 L 4.000000 6.928203" stroke="hsl(250.000, 100%, 50%)"/>
<path d="M -2.670455 -7.541132 L -1.251476 7.901507" stroke="hsl(250.500, 100%, 50%)"/>
<path d="M -2.604545 -7.564149 L -5.945159 5.353045" stroke="hsl(251.000, 100%, 50%)"/>
<path d="M -2.538437 -7.586589 L -7.989036 0.418688" stroke="hsl(251.500, 100%, 50%)"/>
<path d="M -2.472136 -7.608452 L -6.472136 -4.702282" stroke="hsl(252.000, 100%, 50%)"/>
<path d="M -2.405646 -7.629736 L -2.070552 -7.727407" stroke="hsl(252.500, 100%, 50%)"/>
<path d="M -2.338974 -7.650438 L 3.253893 -7.308364" stroke="hsl(253.000, 100%, 50%)"/>
<path d="M -2.272123 -7.670558 L 7.128052 -3.631924" stroke="hsl(253.500, 100%, 50%)"/>
<path d="M -2.205099 -7.690094 L 7.825181 1.663294" stroke="hsl(254.000, 100%, 50%)"/>
<path d="M -2.137907 -7.709044 L 5.034563 6.217168" stroke="hsl(254.500, 100%, 50%)"/>
<path d="M -2.070552 -7.727407 L 0.000000 8.000000" stroke="hsl(255.000, 100%, 50%)"/>
<path d="M -2.003040 -7.745181 L -5.034563 6.217168" stroke="hsl(255.500, 100%, 50%)"/>
<path d="M -1.935375 -7.762366 L -7.825181 1.663294" stroke="hsl(256.000, 100%, 50%)"/>
<path d="M -1.867563 -7.778959 L -7.128052 -3.631924" stroke="hsl(256.500, 100%, 50%)"/>
<path d="M -1.799608 -7.794961 L -3.253893 -7.308364" stroke="hsl(257.000, 100%, 50%)"/>
<path d="M -1.731517 -7.810368 L 2.070552 -7.727407" stroke="hsl(257.500, 100%, 50%)"/>
<path d="M -1.663294 -7.825181 L 6.472136 -4.702282" stroke="hsl(258.000, 100%, 50%)"/>
<path d="M -1.594943 -7.839398 L 7.989036 0.418688" stroke="hsl(258.500, 100%, 50%)"/>
<path d="M -1.526472 -7.853017 L 5.945159 5.353045" stroke="hsl(259.000, 100%, 50%)"/>
<path d="M -1.457884 -7.866039 L 1.251476 7.901507" stroke="hsl(259.500, 100%, 50%)"/>
<path d="M -1.389185 -7.878462 L -4.000000 6.928203" stroke="hsl(260.000, 100%, 50%)"/>
<path d="M -1.320381 -7.890285 L -7.468643 2.866944" stroke="hsl(260.500, 100%, 50%)"/>
<path d="M -1.251476 -7.901507 L -7.608452 -2.472136" stroke="hsl(261.000, 100%, 50%)"/>
<path d="M -1.182475 -7.912127 L -4.357112 -6.709365" stroke="hsl(261.500, 100%, 50%)"/>
<path d="M -1.113385 -7.922145 L 0.836228 -7.956175" stroke="hsl(262.000, 100%, 50%)"/>
<path d="M -1.044210 -7.931559 L 5.656854 -5.656854" stroke="hsl(262.500, 100%, 50%)"/>
<path d="M -0.974955 -7.940369 L 7.956175 -0.836228" stroke="hsl(263.000, 100%, 50%)"/>
<path d="M -0.905626 -7.948575 L 6.709365 4.357112" stroke="hsl(263.500, 100%, 50%)"/>
<path d="M -0.836228 -7.956175 L 2.472136 7.608452" stroke="hsl(264.000, 100%, 50%)"/>
<path d="M -0.766766 -7.963170 L -2.866944 7.468643" stroke="hsl(264.500, 100%, 50%)"/>
<path d="M -0.697246 -7.969558 L -6.928203 4.000000" stroke="hsl(265.000, 100%, 50%)"/>
<path d="M -0.627673 -7.975339 L -7.901507 -1.251476" stroke="hsl(265.500, 100%, 50%)"/>
<path d="M -0.558052 -7.980512 L -5.353045 -5.945159" stroke="hsl(266.000, 100%, 50%)"/>
<path d="M -0.488388 -7.985078 L -0.418688 -7.989036" stroke="hsl(266.500, 100%, 50%)"/>
<path d="M -0.418688 -7.989036 L 4.702282 -6.472136" stroke="hsl(267.000, 100%, 50%)"/>
<path d="M -0.348955 -7.992386 L 7.727407 -2.070552" stroke="hsl(267.500, 100%, 50%)"/>
<path d="M -0.279196 -7.995127 L 7.308364 3.253893" stroke="hsl(268.000, 100%, 50%)"/>
<path d="M -0.209416 -7.997259 L 3.631924 7.128052" stroke="hsl(268.500, 100%, 50%)"/>
<path d="M -0.139619 -7.998782 L -1.663294 7.825181" stroke="hsl(269.000, 100%, 50%)"/>
<path d="M -0.069812 -7.999695 L -6.217168 5.034563" stroke="hsl(269.500, 100%, 50%)"/>
<path d="M -0.000000 -8.000000 L -8.000000 0.000000" stroke="hsl(270.000, 100%, 50%)"/>
<path d="M 0.069812 -7.999695 L -6.217168 -5.034563" stroke="hsl(270.500, 100%, 50%)"/>
<path d="M 0.139619 -7.998782 L -1.663294 -7.825181" stroke="hsl(271.000, 100%, 50%)"/>
<path d="M 0.209416 -7.997259 L 3.631924 -7.128052" stroke="hsl(271.500, 100%, 50%)"/>
<path d="M 0.279196 -7.995127 L 7.308364 -3.253893" stroke="hsl(272.000, 100%, 50%)"/>
<path d="M 0.348955 -7.992386 L 7.727407 2.070552" stroke="hsl(272.500, 100%, 50%)"/>
<path d="M 0.418688 -7.989036 L 4.702282 6.472136" stroke="hsl(273.000, 100%, 50%)"/>
<path d="M 0.488388 -7.985078 L -0.418688 7.989036" stroke="hsl(273.500, 100%, 50%)"/>
<path d="M 0.558052 -7.980512 L -5.353045 5.945159" stroke="hsl(274.000, 100%, 50%)"/>
<path d="M 0.627673 -7.975339 L -7.901507 1.251476" stroke="hsl(274.500, 100%, 50%)"/>
<path d="M 0.697246 -7.969558 L -6.928203 -4.000000" stroke="hsl(275.000, 100%, 50%)"/>
<path d="M 0.766766 -7.963170 L -2.866944 -7.468643" stroke="hsl(275.500, 100%, 50%)"/>
<path d="M 0.836228 -7.956175 L 2.472136 -7.608452" stroke="hsl(276.000, 100%, 50%)"/>
<path d="M 0.905626 -7.948575 L 6.709365 -4.357112" stroke="hsl(276.500, 100%, 50%)"/>
<path d="M 0.974955 -7.940369 L 7.956175 0.836228" stroke="hsl(277.000, 100%, 50%)"/>
<path d="M 1.044210 -7.931559 L 5.656854 5.656854" stroke="hsl(277.500, 100%, 50%)"/>
<path d="M 1.113385 -7.922145 L 0.836228 7.956175" stroke="hsl(278.000, 100%, 50%)"/>
<path d="M 1.182475 -7.912127 L -4.357112 6.709365" stroke="hsl(278.500, 100%, 50%)"/>
<path d="M 1.251476 -7.901507 L -7.608452 2.472136" stroke="hsl(279.000, 100%, 50%)"/>
<path d="M 1.320381 -7.890285 L -7.468643 -2.866944" stroke="hsl(279.500, 100%, 50%)"/>
<path d="M 1.389185 -7.878462 L -4.000000 -6.928203" stroke="hsl(280.000, 100%, 50%)"/>
<path d="M 1.457884 -7.866039 L 1.251476 -7.901507" stroke="hsl(280.500, 100%, 50%)"/>
<path d="M 1.526472 -7.853017 L 5.945159 -5.353045" stroke="hsl(281.000, 100%, 50%)"/>
<path d="M 1.594943 -7.839398 L 7.989036 -0.418688" stroke="hsl(281.500, 100%, 50%)"/>
<path d="M 1.663294 -7.825181 L 6.472136 4.702282" stroke="hsl(282.000, 100%, 50%)"/>
<path d="M 1.731517 -7.810368 L 2.070552 7.727407" stroke="hsl(282.500, 100%, 50%)"/>
<path d="M 1.799608 -7.794961 L -3.253893 7.308364" stroke="hsl(283.000, 100%, 50%)"/>
<path d="M 1.867563 -7.778959 L -7.128052 3.631924" stroke="hsl(283.500, 100%, 50%)"/>
<path d="M 1.935375 -7.762366 L -7.825181 -1.663294" stroke="hsl(284.000, 100%, 50%)"/>
<path d="M 2.003040 -7.745181 L -5.034563 -6.217168" stroke="hsl(284.500, 100%, 50%)"/>
<path d="M 2.070552 -7.727407 L -0.000000 -8.000000" stroke="hsl(285.000, 100%, 50%)"/>
<path d="M 2.137907 -7.709044 L 5.034563 -6.217168" stroke="hsl(285.500, 100%, 50%)"/>
<path d="M 2.205099 -7.690094 L 7.825181 -1.663294" stroke="hsl(286.000, 100%, 50%)"/>
<path d="M 2.272123 -7.670558 L 7.128052 3.631924" stroke="hsl(286.500, 100%, 50%)"/>
<path d="M 2.338974 -7.650438 L 3.253893 7.308364" stroke="hsl(287.000, 100%, 50%)"/>
<path d="M 2.405646 -7.629736 L -2.070552 7.727407" stroke="hsl(287.500, 100%, 50%)"/>
<path d="M 2.472136 -7.608452 L -6.472136 4.702282" stroke="hsl(288.000, 100%, 50%)"/>
<path d="M 2.538437 -7.586589 L -7.989036 -0.418688" stroke="hsl(288.500, 100%, 50%)"/>
<path d="M 2.604545 -7.564149 L -5.945159 -5.353045" stroke="hsl(289.000, 100%, 50%)"/>
<path d="M 2.670455 -7.541132 L -1.251476 -7.901507" stroke="hsl(289.500, 100%, 50%)"/>
<path d="M 2.736161 -7.517541 L 4.000000 -6.928203" stroke="hsl(290.000, 100%, 50%)"/>
<path d="M 2.801659 -7.493378 L 7.468643 -2.866944" stroke="hsl(290.500, 100%, 50%)"/>
<path d="M 2.866944 -7.468643 L 7.608452 2.472136" stroke="hsl(291.000, 100%, 50%)"/>
<path d="M 2.932010 -7.443341 L 4.357112 6.709365" stroke="hsl(291.500, 100%, 50%)"/>
<path d="M 2.996853 -7.417471 L -0.836228 7.956175" stroke="hsl(292.000, 100%, 50%)"/>
<path d="M 3.061467 -7.391036 L -5.656854 5.656854" stroke="hsl(292.500, 100%, 50%)"/>
<path d="M 3.125849 -7.364039 L -7.956175 0.836228" stroke="hsl(293.000, 100%, 50%)"/>
<path d="M 3.189993 -7.336481 L -6.709365 -4.357112" stroke="hsl(293.500, 100%, 50%)"/>
<path d="M 3.253893 -7.308364 L -2.472136 -7.608452" stroke="hsl(294.000, 100%, 50%)"/>
<path d="M 3.317546 -7.279690 L 2.866944 -7.468643" stroke="hsl(294.500, 100%, 50%)"/>
<path d="M 3.380946 -7.250462 L 6.928203 -4.000000" stroke="hsl(295.000, 100%, 50%)"/>
<path d="M 3.444089 -7.220682 L 7.901507 1.251476" stroke="hsl(295.500, 100%, 50%)"/>
<path d="M 3.506969 -7.190352 L 5.353045 5.945159" stroke="hsl(296.000, 100%, 50%)"/>
<path d="M 3.569583 -7.159475 L 0.418688 7.989036" stroke="hsl(296.500, 100%, 50%)"/>
<path d="M 3.631924 -7.128052 L -4.702282 6.472136" stroke="hsl(297.000, 100%, 50%)"/>
<path d="M 3.693989 -7.096087 L -7.727407 2.070552" stroke="hsl(297.500, 100%, 50%)"/>
<path d="M 3.755773 -7.063581 L -7.308364 -3.253893" stroke="hsl(298.000, 100%, 50%)"/>
<path d="M 3.817270 -7.030537 L -3.631924 -7.128052" stroke="hsl(298.500, 100%, 50%)"/>
<path d="M 3.878477 -6.996958 L 1.663294 -7.825181" stroke="hsl(299.000, 100%, 50%)"/>
<path d="M 3.939388 -6.962846 L 6.217168 -5.034563" stroke="hsl(299.500, 100%, 50%)"/>
<path d="M 4.000000 -6.928203 L 8.000000 0.000000" stroke="hsl(300.000, 100%, 50%)"/>
<path d="M 4.060307 -6.893033 L 6.217168 5.034563" stroke="hsl(300.500, 100%, 50%)"/>
<path d="M 4.120305 -6.857338 L 1.663294 7.825181" stroke="hsl(301.000, 100%, 50%)"/>
<path d="M 4.179989 -6.821121 L -3.631924 7.128052" stroke="hsl(301.500, 100%, 50%)"/>
<path d="M 4.239354 -6.784385 L -7.308364 3.253893" stroke="hsl(302.000, 100%, 50%)"/>
<path d="M 4.298397 -6.747132 L -7.727407 -2.070552" stroke="hsl(302.500, 100%, 50%)"/>
<path d="M 4.357112 -6.709365 L -4.702282 -6.472136" stroke="hsl(303.000, 100%, 50%)"/>
<path d="M 4.415496 -6.671087 L 0.418688 -7.989036" stroke="hsl(303.500, 100%, 50%)"/>
<path d="M 4.473543 -6.632301 L 5.353045 -5.945159" stroke="hsl(304.000, 100%, 50%)"/>
<path d="M 4.531250 -6.593010 L 7.901507 -1.251476" stroke="hsl(304.500, 100%, 50%)"/>
<path d="M 4.588611 -6.553216 L 6.928203 4.000000" stroke="hsl(305.000, 100%, 50%)"/>
<path d="M 4.645624 -6.512924 L 2.866944 7.468643" stroke="hsl(305.500, 100%, 50%)"/>
<path d="M 4.702282 -6.472136 L -2.472136 7.608452" stroke="hsl(306.000, 100%, 50%)"/>
<path d="M 4.758582 -6.430855 L -6.709365 4.357112" stroke="hsl(306.500, 100%, 50%)"/>
<path d="M 4.814520 -6.389084 L -7.956175 -0.836228" stroke="hsl(307.000, 100%, 50%)"/>
<path d="M 4.870091 -6.346827 L -5.656854 -5.656854" stroke="hsl(307.500, 100%, 50%)"/>
<path d="M 4.925292 -6.304086 L -0.836228 -7.956175" stroke="hsl(308.000, 100%, 50%)"/>
<path d="M 4.980117 -6.260865 L 4.357112 -6.709365" stroke="hsl(308.500, 100%, 50%)"/>
<path d="M 5.034563 -6.217168 L 7.608452 -2.472136" stroke="hsl(309.000, 100%, 50%)"/>
<path d="M 5.088626 -6.172997 L 7.468643 2.866944" stroke="hsl(309.500, 100%, 50%)"/>
<path d="M 5.142301 -6.128356 L 4.000000 6.928203" stroke="hsl(310.000, 100%, 50%)"/>
<path d="M 5.195584 -6.083248 L -1.251476 7.901507" stroke="hsl(310.500, 100%, 50%)"/>
<path d="M 5.248472 -6.037677 L -5.945159 5.353045" stroke="hsl(311.000, 100%, 50%)"/>
<path d="M 5.300960 -5.991646 L -7.989036 0.418688" stroke="hsl(311.500, 100%, 50%)"/>
<path d="M 5.353045 -5.945159 L -6.472136 -4.702282" stroke="hsl(312.000, 100%, 50%)"/>
<path d="M 5.404722 -5.898219 L -2.070552 -7.727407" stroke="hsl(312.500, 100%, 50%)"/>
<path d="M 5.455987 -5.850830 L 3.253893 -7.308364" stroke="hsl(313.000, 100%, 50%)"/>
<path d="M 5.506837 -5.802995 L 7.128052 -3.631924" stroke="hsl(313.500, 100%, 50%)"/>
<path d="M 5.557267 -5.754718 L 7.825181 1.663294" stroke="hsl(314.000, 100%, 50%)"/>
<path d="M 5.607274 -5.706004 L 5.034563 6.217168" stroke="hsl(314.500, 100%, 50%)"/>
<path d="M 5.656854 -5.656854 L 0.000000 8.000000" stroke="hsl(315.000, 100%, 50%)"/>
<path d="M 5.706004 -5.607274 L -5.034563 6.217168" stroke="hsl(315.500, 100%, 50%)"/>
<path d="M 5.754718 -5.557267 L -7.825181 1.663294" stroke="hsl(316.000, 100%, 50%)"/>
<path d="M 5.802995 -5.506837 L -7.128052 -3.631924" stroke="hsl(316.500, 100%, 50%)"/>
<path d="M 5.850830 -5.455987 L -3.253893 -7.308364" stroke="hsl(317.000, 100%, 50%)"/>
<path d="M 5.898219 -5.404722 L 2.070552 -7.727407" stroke="hsl(317.500, 100%, 50%)"/>
<path d="M 5.945159 -5.353045 L 6.472136 -4.702282" stroke="hsl(318.000, 100%, 50%)"/>
<path d="M 5.991646 -5.300960 L 7.989036 0.418688" stroke="hsl(318.500, 100%, 50%)"/>
<path d="M 6.037677 -5.248472 L 5.945159 5.353045" stroke="hsl(319.000, 100%, 50%)"/>
<path d="M 6.083248 -5.195584 L 1.251476 7.901507" stroke="hsl(319.500, 100%, 50%)"/>
<path d="M 6.128356 -5.142301 L -4.000000 6.928203" stroke="hsl(320.000, 100%, 50%)"/>
<path d="M 6.172997 -5.088626 L -7.468643 2.866944" stroke="hsl(320.500, 100%, 50%)"/>
<path d="M 6.217168 -5.034563 L -7.608452 -2.472136" stroke="hsl(321.000, 100%, 50%)"/>
<path d="M 6.260865 -4.980117 L -4.357112 -6.709365" stroke="hsl(321.500, 100%, 50%)"/>
<path d="M 6.304086 -4.925292 L 0.836228 -7.956175" stroke="hsl(322.000, 100%, 50%)"/>
<path d="M 6.346827 -4.870091 L 5.656854 -5.656854" stroke="hsl(322.500, 100%, 50%)"/>
<path d="M 6.389084 -4.814520 L 7.956175 -0.836228" stroke="hsl(323.000, 100%, 50%)"/>
<path d="M 6.430855 -4.758582 L 6.709365 4.357112" stroke="hsl(323.500, 100%, 50%)"/>
<path d="M 6.472136 -4.702282 L 2.472136 7.608452" stroke="hsl(324.000, 100%, 50%)"/>
<path d="M 6.512924 -4.645624 L -2.866944 7.468643" stroke="hsl(324.500, 100%, 50%)"/>
<path d="M 6.553216 -4.588611 L -6.928203 4.000000" stroke="hsl(325.000, 100%, 50%)"/>
<path d="M 6.593010 -4.531250 L -7.901507 -1.251476" stroke="hsl(325.500, 100%, 50%)"/>
<path d="M 6.632301 -4.473543 L -5.353045 -5.945159" stroke="hsl(326.000, 100%, 50%)"/>
<path d="M 6.671087 -4.415496 L -0.418688 -7.989036" stroke="hsl(326.500, 100%, 50%)"/>
<path d="M 6.709365 -4.357112 L 4.702282 -6.472136" stroke="hsl(327.000, 100%, 50%)"/>
<path d="M 6.747132 -4.298397 L 7.727407 -2.070552" stroke="hsl(327.500, 100%, 50%)"/>
<path d="M 6.784385 -4.239354 L 7.308364 3.253893" stroke="hsl(328.000, 100%, 50%)"/>
<path d="M 6.821121 -4.179989 L 3.631924 7.128052" stroke="hsl(328.500, 100%, 50%)"/>
<path d="M 6.857338 -4.120305 L -1.663294 7.825181" stroke="hsl(329.000, 100%, 50%)"/>
<path d="M 6.893033 -4.060307 L -6.217168 5.034563" stroke="hsl(329.500, 100%, 50%)"/>
<path d="M 6.928203 -4.000000 L -8.000000 0.000000" stroke="hsl(330.000, 100%, 50%)"/>
<path d="M 6.962846 -3.939388 L -6.217168 -5.034563" stroke="hsl(330.500, 100%, 50%)"/>
<path d="M 6.996958 -3.878477 L -1.663294 -7.825181" stroke="hsl(331.000, 100%, 50%)"/>
<path d="M 7.030537 -3.817270 L 3.631924 -7.128052" stroke="hsl(331.500, 100%, 50%)"/>
<path d="M 7.063581 -3.755773 L 7.308364 -3.253893" stroke="hsl(332.000, 100%, 50%)"/>
<path d="M 7.096087 -3.693989 L 7.727407 2.070552" stroke="hsl(332.500, 100%, 50%)"/>
<path d="M 7.128052 -3.631924 L 4.702282 6.472136" stroke="hsl(333.000, 100%, 50%)"/>
<path d="M 7.159475 -3.569583 L -0.418688 7.989036" stroke="hsl(333.500, 100%, 50%)"/>
<path d="M 7.190352 -3.506969 L -5.353045 5.945159" stroke="hsl(334.000, 100%, 50%)"/>
<path d="M 7.220682 -3.444089 L -7.901507 1.251476" stroke="hsl(334.500, 100%, 50%)"/>
<path d="M 7.250462 -3.380946 L -6.928203 -4.000000" stroke="hsl(335.000, 100%, 50%)"/>
<path d="M 7.279690 -3.317546 L -2.866944 -7.468643" stroke="hsl(335.500, 100%, 50%)"/>
<path d="M 7.308364 -3.253893 L 2.472136 -7.608452" stroke="hsl(336.000, 100%, 50%)"/>
<path d="M 7.336481 -3.189993 L 6.709365 -4.357112" stroke="hsl(336.500, 100%, 50%)"/>
<path d="M 7.364039 -3.125849 L 7.956175 0.836228" stroke="hsl(337.000, 100%, 50%)"/>
<path d="M 7.391036 -3.061467 L 5.656854 5.656854" stroke="hsl(337.500, 100%, 50%)"/>
<path d="M 7.417471 -2.996853 L 0.836228 7.956175" stroke="hsl(338.000, 100%, 50%)"/>
<path d="M 7.443341 -2.932010 L -4.357112 6.709365" stroke="hsl(338.500, 100%, 50%)"/>
<path d="M 7.468643 -2.866944 L -7.608452 2.472136" stroke="hsl(339.000, 100%, 50%)"/>
<path d="M 7.493378 -2.801659 L -7.468643 -2.866944" stroke="hsl(339.500, 100%, 50%)"/>
<path d="M 7.517541 -2.736161 L -4.000000 -6.928203" stroke="hsl(340.000, 100%, 50%)"/>
<path d="M 7.541132 -2.670455 L 1.251476 -7.901507" stroke="hsl(340.500, 100%, 50%)"/>
<path d="M 7.564149 -2.604545 L 5.945159 -5.353045" stroke="hsl(341.000, 100%, 50%)"/>
<path d="M 7.586589 -2.538437 L 7.989036 -0.418688" stroke="hsl(341.500, 100%, 50%)"/>
<path d="M 7.608452 -2.472136 L 6.472136 4.702282" stroke="hsl(342.000, 100%, 50%)"/>
<path d="M 7.629736 -2.405646 L 2.070552 7.727407" stroke="hsl(342.500, 100%, 50%)"/>
<path d="M 7.650438 -2.338974 L -3.253893 7.308364" stroke="hsl(343.000, 100%, 50%)"/>
<path d="M 7.670558 -2.272123 L -7.128052 3.631924" stroke="hsl(343.500, 100%, 50%)"/>
<path d="M 7.690094 -2.205099 L -7.825181 -1.663294" stroke="hsl(344.000, 100%, 50%)"/>
<path d="M 7.709044 -2.137907 L -5.034563 -6.217168" stroke="hsl(344.500, 100%, 50%)"/>
<path d="M 7.727407 -2.070552 L -0.000000 -8.000000" stroke="hsl(345.000, 100%, 50%)"/>
<path d="M 7.745181 -2.003040 L 5.034563 -6.217168" stroke="hsl(345.500, 100%, 50%)"/>
<path d="M 7.762366 -1.935375 L 7.825181 -1.663294" stroke="hsl(346.000, 100%, 50%)"/>
<path d="M 7.778959 -1.867563 L 7.128052 3.631924" stroke="hsl(346.500, 100%, 50%)"/>
<path d="M 7.794961 -1.799608 L 3.253893 7.308364" stroke="hsl(347.000, 100%, 50%)"/>
<path d="M 7.810368 -1.731517 L -2.070552 7.727407" stroke="hsl(347.500, 100%, 50%)"/>
<path d="M 7.825181 -1.663294 L -6.472136 4.702282" stroke="hsl(348.000, 100%, 50%)"/>
<path d="M 7.839398 -1.594943 L -7.989036 -0.418688" stroke="hsl(348.500, 100%, 50%)"/>
<path d="M 7.853017 -1.526472 L -5.945159 -5.353045" stroke="hsl(349.000, 100%, 50%)"/>
<path d="M 7.866039 -1.457884 L -1.251476 -7.901507" stroke="hsl(349.500, 100%, 50%)"/>
<path d="M 7.878462 -1.389185 L 4.000000 -6.928203" stroke="hsl(350.000, 100%, 50%)"/>
<path d="M 7.890285 -1.320381 L 7.468643 -2.866944" stroke="hsl(350.500, 100%, 50%)"/>
<path d="M 7.901507 -1.251476 L 7.608452 2.472136" stroke="hsl(351.000, 100%, 50%)"/>
<path d="M 7.912127 -1.182475 L 4.357112 6.709365" stroke="hsl(351.500, 100%, 50%)"/>
<path d="M 7.922145 -1.113385 L -0.836228 7.956175" stroke="hsl(352.000, 100%, 50%)"/>
<path d="M 7.931559 -1.044210 L -5.656854 5.656854" stroke="hsl(352.500, 100%, 50%)"/>
<path d="M 7.940369 -0.974955 L -7.956175 0.836228" stroke="hsl(353.000, 100%, 50%)"/>
<path d="M 7.948575 -0.905626 L -6.709365 -4.357112" stroke="hsl(353.500, 100%, 50%)"/>
<path d="M 7.956175 -0.836228 L -2.472136 -7.608452" stroke="hsl(354.000, 100%, 50%)"/>
<path d="M 7.963170 -0.766766 L 2.866944 -7.468643" stroke="hsl(354.500, 100%, 50%)"/>
<path d="M 7.969558 -0.697246 L 6.928203 -4.000000" stroke="hsl(355.000, 100%, 50%)"/>
<path d="M 7.975339 -0.627673 L 7.901507 1.251476" stroke="hsl(355.500, 100%, 50%)"/>
<path d="M 7.980512 -0.558052 L 5.353045 5.945159" stroke="hsl(356.000, 100%, 50%)"/>
<path d="M 7.985078 -0.488388 L 0.418688 7.989036" stroke="hsl(356.500, 100%, 50%)"/>
<path d="M 7.989036 -0.418688 L -4.702282 6.472136" stroke="hsl(357.000, 100%, 50%)"/>
<path d="M 7.992386 -0.348955 L -7.727407 2.070552" stroke="hsl(357.500, 100%, 50%)"/>
<path d="M 7.995127 -0.279196 L -7.308364 -3.253893" stroke="hsl(358.000, 100%, 50%)"/>
<path d="M 7.997259 -0.209416 L -3.631924 -7.128052" stroke="hsl(358.500, 100%, 50%)"/>
<path d="M 7.998782 -0.139619 L 1.663294 -7.825181" stroke="hsl(359.000, 100%, 50%)"/>
<path d="M 7.999695 -0.069812 L 6.217168 -5.034563" stroke="hsl(359.500, 100%, 50%)"/>
<circle r="8.000000" stroke="#666"/>
</g>
</svg>